# xmcd
#
# Track frame offsets:
#	150
#	15846
#	33309
#	47529
#	62629
#	81118
#	97147
#	112529
#	128895
#	145357
#	162101
#
# Disc length: 2422 seconds
#
# Revision: 2
# Processed by: cddbd v1.5.2PL0 Copyright (c) Steve Scherf et al.
# Submitted via: audiograbber 1.83.01
#
DISCID=7f09740b
DTITLE=Love And Theft - Wide Open
DYEAR=2010
DGENRE=Country
TTITLE0=World Wide Open
TTITLE1=Runaway
TTITLE2=Dancing In Circles
TTITLE3=It's Up To You
TTITLE4=You To Miss
TTITLE5=Can't Go Back
TTITLE6=Don't Wake Me
TTITLE7=Freedom
TTITLE8=Slow Down
TTITLE9=Me Without You
TTITLE10=Drowning
EXTD=
EXTT0=
EXTT1=
EXTT2=
EXTT3=
EXTT4=
EXTT5=
EXTT6=
EXTT7=
EXTT8=
EXTT9=
EXTT10=
PLAYORDER=
